<?xml version="1.0" standalone="no"?>
<!DOCTYPE svg PUBLIC "-//W3C//DTD SVG 1.1//EN" "http://www.w3.org/Graphics/SVG/1.1/DTD/svg11.dtd" >
<!--
2013-9-30: Created.
-->
<svg>
<metadata>
Created by iconfont
</metadata>
<defs>

<font id="iconfont" horiz-adv-x="1024" >
  <font-face
    font-family="iconfont"
    font-weight="500"
    font-stretch="normal"
    units-per-em="1024"
    ascent="896"
    descent="-128"
  />
    <missing-glyph />
    
    <glyph glyph-name="xiaofeizhebaozhang" unicode="&#58880;" d="M981.294225 809.649863l0-521.855179q0-46.929423-23.464711-93.389551t-61.477544-90.104491-86.819432-82.595784-99.021082-69.455545-97.613199-50.683776-83.065078-27.688359l-11.263061-1.877177-10.324473 1.877177q-36.60495 7.508708-84.942255 27.688359t-100.428964 50.683776-102.306141 69.455545-89.635197 82.595784-63.824015 90.104491-24.4033 93.389551l0 521.855179 38.482126 5.631531 431.750687 80.718607 440.197984-80.718607zM512.938588 781.492209l-4.692942 0.938588-336.953254-57.253896 0-299.409716 341.646196 0 0 355.725023zM852.707608 425.767186l-339.769019 0 0-426.119157q32.850596 7.508708 71.332722 22.995417t76.025665 36.60495 72.271311 46.929423 61.477544 55.376719 42.705775 61.477544 15.956004 64.762603l0 137.972502z"  horiz-adv-x="1024" />

    
    <glyph glyph-name="fukuanfangshi" unicode="&#58881;" d="M716.8 522.24q62.464 0 118.272-23.552t97.792-64.512 66.56-95.744 24.576-116.224-24.576-116.736-66.56-96.768-97.792-65.536-118.272-24.064-116.736 24.064-94.208 65.536-62.976 96.768-23.04 116.736 23.04 116.224 62.976 95.744 94.208 64.512 116.736 23.552zM885.76 254.976l-94.208 0 92.16 89.088-46.08 46.08-105.472-99.328 33.792-35.84-110.592 0 32.768 44.032-97.28 94.208-38.912-52.224 88.064-86.016-79.872 0 0-57.344 138.24 0 0-45.056-138.24 0 0-49.152 138.24 0 0-92.16 52.224 0 0 92.16 135.168 0 0 49.152-135.168 0 0 45.056 135.168 0 0 57.344zM896 802.816q26.624 0 50.176-10.24t40.96-27.648 27.136-40.448 9.728-49.664l0-151.552-140.288 0q0 26.624-12.288 37.888t-38.912 11.264l-625.664 0q-26.624 0-46.592-18.432t-19.968-45.056l0-385.024q0-26.624 19.968-45.568t46.592-18.944l212.992 0 0-140.288-290.816 0q-26.624 0-50.176 11.776t-40.96 31.744-27.648 45.056-10.24 51.712l0 615.424q0 26.624 10.24 49.664t27.648 40.448 40.96 27.648 50.176 10.24l766.976 0z"  horiz-adv-x="1024" />

    
    <glyph glyph-name="taobaotese" unicode="&#58882;" d="M552.05868 774.989405q86.793806-7.511002 162.738386-45.483293t131.859821-98.06031 88.04564-138.953545 32.130399-167.328443q0-94.304808-35.885901-176.508557t-97.225754-143.96088-144.378158-97.225754-176.508557-35.468623q-94.304808 0-177.343113 35.468623t-144.795436 97.225754-97.643032 143.96088-35.885901 176.508557q0 77.613692 24.619397 147.299104t68.850856 126.435208 104.319478 98.477588 131.859821 61.757131q-8.345558 25.036675-20.446618 49.656072t-23.784841 43.814181-20.863896 31.295844-10.849226 12.101059q64.260799-10.849226 109.326813-30.04401t73.858191-38.806846 42.562347-34.634067 15.439283-17.525672zM311.706601 548.824776q-23.367563 0-39.224124-14.187449t-15.856561-35.051345q0-20.02934 15.856561-34.216789t39.224124-14.187449q22.533007 0 38.389568 14.187449t15.856561 34.216789q0 20.863896-15.856561 35.051345t-38.389568 14.187449zM356.772616 254.226569q11.683782 35.051345 12.101059 60.922575t-18.777506 45.066015q-12.518337 11.683782-20.446618 19.194784t-16.273839 14.604727-19.194784 15.022005-29.209454 21.281174l-35.051345-52.577017 65.095355-39.224124q10.849226-6.676447 18.360228-15.856561 6.676447-8.345558 8.762836-20.02934t-5.424613-26.705786q-6.676447-14.187449-25.453953-35.468623t-37.97229-40.475958q-22.533007-22.533007-49.238794-46.735126l84.290139-51.742461q21.698452 46.735126 32.964955 70.102689t17.108394 35.885901 9.180114 21.281174 9.180114 25.453953zM813.274654 195.807661q6.676447 57.584352 6.676447 103.484923t-2.503667 78.448248q-3.338223 38.389568-8.345558 66.764466-10.01467 30.878566-48.404238 49.238794-16.691117 7.511002-40.475958 13.352893t-58.00163 7.511002-78.865526-2.08639-102.233089-14.604727q4.172779 9.180114 7.92828 16.273839t6.259169 12.935615q3.338223 6.676447 5.007335 12.518337l-76.779136 22.533007q-10.01467-30.878566-23.367563-59.253464-11.683782-24.202119-28.374898-50.907905t-37.555012-44.231459q15.022005-8.345558 27.540342-14.187449 10.849226-5.841891 19.194784-10.01467t8.345558-3.338223q11.683782 10.849226 21.698452 22.115729t19.194784 22.950285q9.180114 4.172779 18.360228 7.92828t18.360228 7.92828q-10.849226-19.194784-27.540342-44.231459t-33.382233-44.231459l32.547677-28.374898 12.518337 12.518337 13.352893 14.187449q8.345558 7.511002 17.525672 17.525672l42.562347 0 3.338223-60.922575-123.514262 0 0-35.051345 123.514262 0 0-73.440913-4.172779 0-14.187449 0q-10.01467 0-20.863896 0.834556t-19.612062 2.920945-11.266504 6.259169q-6.676447 10.01467-3.755501 27.123064t3.755501 28.792176l-62.591687 0-7.511002-1.669112q-5.841891-36.720456 0-65.095355 2.503667-12.518337 7.511002-23.784841t14.187449-20.02934 22.950285-14.187449 33.799511-4.590057q37.555012-0.834556 67.599022 5.007335t52.994295 15.022005 39.641402 19.612062 26.705786 17.94295l10.849226-40.05868 60.922575 25.036675-38.389568 94.304808 21.698452 0 0 35.051345-108.492258 0 0 60.922575 105.98859 0 0 35.051345-190.278729 0q10.01467 12.518337 19.194784 25.871231t10.849226 20.02934l-32.547677 8.345558q63.426243 10.849226 113.499593 10.849226 20.863896 0 41.310513-2.08639t36.303178-7.92828 25.453953-15.856561 9.597392-25.036675l0-215.315403q-1.669112-20.02934-10.849226-35.051345-8.345558-13.352893-25.871231-23.367563t-49.238794-8.345558l-45.90057 7.511002-10.849226-33.382233q56.749796-16.691117 102.650367-14.187449 20.02934 0.834556 39.224124 5.841891t34.634067 16.273839 26.288509 30.04401 14.187449 47.98696zM643.025265 229.189894q-17.525672-13.352893-43.396903-22.533007l0 65.92991 63.426243 0-29.209454-9.180114z"  horiz-adv-x="1024" />

    
    <glyph glyph-name="weibiaoti1" unicode="&#58936;" d="M820.736 385.193984c0-171.169792-138.76224-309.929984-309.929984-309.929984-171.169792 0-309.932032 138.760192-309.932032 309.929984 0 48.187392 10.999808 93.806592 30.621696 134.483968L41.811968 519.677952l0-582.998016c0-11.309056 9.170944-20.48 20.48-20.48l897.026048 0c11.309056 0 20.48 9.170944 20.48 20.48L979.798016 519.677952l-189.683712 0C809.73824 479.000576 820.736 433.381376 820.736 385.193984zM510.806016 385.193984m-191.145984 0a93.333 93.333 0 1 0 382.291968 0 93.333 93.333 0 1 0-382.291968 0ZM959.318016 854.185984 62.291968 854.185984c-11.309056 0-20.48-9.168896-20.48-20.48l0-233.472 245.82144 0c56.375296 58.492928 135.518208 94.889984 223.172608 94.889984 87.652352 0 166.795264-36.397056 223.17056-94.889984l245.82144 0 0 233.472C979.798016 845.017088 970.627072 854.185984 959.318016 854.185984zM243.712 764.246016 70.313984 764.246016 70.313984 790.185984 243.712 790.185984 243.712 764.246016zM920.915968 764.246016 894.976 764.246016 894.976 790.185984l25.939968 0L920.915968 764.246016z"  horiz-adv-x="1024" />

    
    <glyph glyph-name="fangdajing-copy" unicode="&#58883;" d="M459.019-19.984c-122.33 0-237.325 47.642-323.844 134.142-178.529 178.548-178.529 469.101 0 647.649 86.519 86.5 201.513 134.142 323.844 134.142s237.325-47.642 323.806-134.142c86.518-86.5 134.141-201.494 134.141-323.825s-47.623-237.325-134.142-323.825c-86.48-86.499-201.475-134.141-323.805-134.141zM459.019 818.91c-101.754 0-197.414-39.63-269.375-111.572-148.512-148.531-148.512-390.181 0-538.711 71.961-71.942 167.621-111.572 269.375-111.572s197.414 39.63 269.337 111.572c71.961 71.942 111.572 167.602 111.572 269.356s-39.611 197.414-111.572 269.356c-71.924 71.942-167.584 111.572-269.337 111.572zM986.595-128c-9.856 0-19.711 3.762-27.234 11.285l-160.022 160.022c-15.046 15.046-15.046 39.422 0 54.469 15.046 15.046 39.422 15.046 54.469 0l160.022-160.022c15.046-15.046 15.046-39.422 0-54.469-7.523-7.523-17.38-11.284-27.235-11.284z"  horiz-adv-x="1026" />

    
    <glyph glyph-name="ren" unicode="&#58951;" d="M985.6-128 38.4-128c-12.8 0-25.6 12.8-25.6 25.6 0 217.6 192 275.2 281.6 300.8 19.2 6.4 32 12.8 38.4 12.8 76.8 38.4 83.2 64 83.2 70.4 0 6.4 0 6.4 0 6.4C352 326.4 320 428.8 300.8 467.2c0 0 0 6.4 0 6.4C256 492.8 249.6 569.6 249.6 601.6c0 38.4 6.4 51.2 25.6 64C281.6 793.6 384 896 512 896c128 0 230.4-96 230.4-224 19.2-12.8 32-19.2 32-57.6 0-38.4-12.8-115.2-51.2-134.4 0 0 0-6.4 0-6.4-12.8-44.8-44.8-140.8-115.2-185.6 0 0 0-6.4 0-12.8 0-12.8 32-44.8 83.2-70.4 12.8-6.4 25.6-12.8 51.2-19.2 96-25.6 268.8-83.2 268.8-300.8C1011.2-115.2 998.4-128 985.6-128zM64-83.2l896 0c-12.8 160-147.2 204.8-236.8 230.4-25.6 6.4-44.8 12.8-57.6 19.2l0 0c-32 19.2-108.8 57.6-108.8 115.2 0 25.6 6.4 44.8 25.6 51.2 51.2 32 83.2 121.6 96 153.6C684.8 512 691.2 524.8 704 524.8c6.4 6.4 25.6 51.2 25.6 89.6 0 12.8 0 19.2 0 19.2 0 0-6.4 0-6.4 6.4 0 0-6.4 0-6.4 6.4-6.4 6.4-12.8 12.8-12.8 19.2l0 6.4C697.6 768 620.8 851.2 512 851.2c-102.4 0-192-83.2-192-185.6l0-6.4C320 646.4 320 640 313.6 633.6 294.4 627.2 294.4 627.2 294.4 601.6c0-38.4 12.8-76.8 19.2-83.2 12.8 0 19.2-12.8 25.6-32C358.4 448 390.4 358.4 441.6 326.4 454.4 320 467.2 307.2 467.2 281.6c0-38.4-38.4-76.8-108.8-115.2-12.8-6.4-25.6-12.8-51.2-19.2C224 128 76.8 83.2 64-83.2z"  horiz-adv-x="1024" />

    
    <glyph glyph-name="star" unicode="&#58937;" d="M511.999 784.36l130.093-263.575 290.863-42.268-210.479-205.175 49.696-289.697-260.173 136.783-260.16-136.783 49.683 289.697-210.478 205.175 290.887 42.268zM251.839-41.729c-5.254 0-10.494 1.636-14.918 4.844-7.806 5.688-11.721 15.301-10.098 24.817l47.428 276.565-200.925 195.844c-6.913 6.739-9.404 16.825-6.418 26.006 2.986 9.187 10.928 15.883 20.48 17.271l277.693 40.359 124.158 251.613c4.274 8.66 13.095 14.143 22.76 14.143 9.652 0 18.474-5.483 22.747-14.143l124.196-251.612 277.668-40.359c9.553-1.388 17.494-8.084 20.48-17.271 2.986-9.181 0.495-19.267-6.417-26.006l-200.926-195.845 47.439-276.565c1.623-9.516-2.291-19.13-10.097-24.817-7.818-5.688-18.164-6.43-26.725-1.921l-248.366 130.564-248.353-130.564c-3.717-1.958-7.769-2.924-11.807-2.924zM511.999 145.802c4.051 0 8.116-0.966 11.807-2.924l214.665-112.845-41.010 239.023c-1.4 8.227 1.326 16.628 7.298 22.463l173.667 169.282-239.99 34.877c-8.263 1.195-15.401 6.387-19.092 13.877l-107.345 217.472-107.309-217.473c-3.704-7.49-10.841-12.681-19.105-13.877l-240.014-34.877 173.667-169.282c5.972-5.835 8.698-14.235 7.297-22.463l-40.998-239.023 214.653 112.845c3.692 1.959 7.757 2.925 11.808 2.925z"  horiz-adv-x="1024" />

    
    <glyph glyph-name="search" unicode="&#58915;" d="M703.722 252.105c36.472 58.77 57.825 129.217 57.825 205.042 0 205.042-155.362 371.317-347.017 371.317-191.655 0-347.017-166.275-347.017-371.317 0-204.998 155.363-371.295 347.017-371.295 101.925 0 193.32 47.34 256.792 122.22l-3.442-4.838 247.657-263.7 40.905 43.808-252.72 268.762zM414.552 148.312c-159.705 0-289.17 138.24-289.17 308.835 0 170.617 129.465 308.858 289.17 308.858 159.683 0 289.192-138.24 289.192-308.857-0.023-170.595-129.51-308.835-289.192-308.835z"  horiz-adv-x="1024" />

    
    <glyph glyph-name="wangwang" unicode="&#59159;" d="M161.527281 689.163629 161.527281 689.163629C161.527279 640.312501 125.3073 585.585939 112.981826 557.127265 88.720322 501.109117 75.636371 441.854537 75.636371 380.290901 75.636371 139.854537 271.272735-55.781824 511.709099-55.781824 752.145463-55.781824 947.745463 139.818176 947.745463 380.290901 947.745463 620.763629 752.145463 816.363629 511.709099 816.363629 422.872735 816.363629 339.340094 794.263855 266.820311 741.815095 253.634648 732.278778 235.112563 732.944036 215.77605 753.669262 189.9948 781.302074 150.346836 799.159651 122.528655 808.468742 133.9832 777.232378 161.527281 726.03645 161.527281 689.163629L161.527281 689.163629ZM97.527281 689.16363 97.527281 689.16363C97.527281 694.292302 95.130399 704.61514 90.055798 718.738086 87.555409 725.696833 84.554507 733.241814 80.590778 742.655587 78.670239 747.216828 72.064361 762.610643 71.328212 764.343188 67.492409 773.370842 64.786125 780.040154 62.441324 786.434389 43.96882 836.808615 91.957562 886.187494 142.83862 869.16063 188.862061 853.759322 231.85042 830.256563 262.571506 797.329144 259.753676 800.349346 242.770694 803.405668 229.314447 793.673655 310.379036 852.302307 405.73445 880.363629 511.709099 880.363629 787.498142 880.363629 1011.745463 656.103398 1011.745463 380.290901 1011.745463 104.478404 787.498142-119.781824 511.709099-119.781824 235.926511-119.781824 11.636371 104.508314 11.636371 380.290901 11.636371 449.740779 26.14415 517.660582 54.253285 582.562643 58.411462 592.163589 77.121043 628.363583 77.827427 629.796293 87.154444 648.713627 93.013318 663.53515 95.824753 676.030938 96.984854 681.187154 97.52728 685.58941 97.527281 689.16363L97.527281 689.16363ZM529.890918 365.818176C499.745463 365.818176 475.345463 390.218176 475.345463 420.363627L475.345463 493.090901C475.345463 523.236356 499.745463 547.636356 529.890918 547.636356 560.000009 547.636356 584.436373 523.236356 584.436373 493.090901L584.436373 420.363627C584.436373 390.218176 560.000009 365.818176 529.890918 365.818176ZM746.945463 365.818176C716.836373 365.818176 692.400009 390.218176 692.400009 420.363627L692.400009 493.090901C692.400009 523.236356 716.836373 547.636356 746.945463 547.636356 777.054554 547.636356 801.490918 523.236356 801.490918 493.090901L801.490918 420.363627C801.490918 390.218176 777.054554 365.818176 746.945463 365.818176Z"  horiz-adv-x="1024" />

    
    <glyph glyph-name="fangzi" unicode="&#59091;" d="M967.242322 348.692866 554.095747 757.395222c-14.622022 14.462387-38.406728 14.462387-53.020564 0L87.933725 348.692866c-7.359618-7.27673-7.423063-19.148106-0.14224-26.507724 7.28594-7.359618 18.244526-7.432273 25.604144-0.146333l87.887676 87.782276L201.283306 63.550641c0-19.386536 19.455097-30.489408 43.757596-30.489408l168.712493 0c20.380166 0 31.076786 9.848299 31.076786 30.489408L444.830181 269.526829c9.209756 1.583055 5.522784 7.082302 6.415107 7.082302l145.253198 0c0.155543-9.209756-1.242294-4.866844-1.242294-6.138814L595.256192 63.550641c0-19.386536 19.146059-30.489408 43.447535-30.489408l168.712493 0c20.380166 0 31.385824 9.848299 31.385824 30.489408L838.802044 421.371142l101.239775-99.332333c3.656273-3.615341 8.835226-5.418406 13.599739-5.418406 4.827959 0 9.868765 1.858324 13.534248 5.564739C974.458677 329.544761 974.60194 341.416136 967.242322 348.692866zM800.940738 70.924585 638.70475 70.924585c-1.697665 0 2.601244-3.107781-6.608511-2.815115L632.096239 270.469294c0 24.02723-11.42726 44.001143-30.883381 44.001143L451.245288 314.470437c-20.773116 0-44.277436-23.790846-44.277436-44.001143l0-199.545732L245.040902 70.923562c-1.697665 0 3.314489-3.107781-5.895267-2.815115L239.145635 446.884213l286.847054 283.857976 274.948049-272.281313L800.940738 70.924585z"  horiz-adv-x="1024" />

    
    <glyph glyph-name="shouji" unicode="&#58884;" d="M755.609-36.928H268.395c-28.857 0-52.205 20.154-52.205 44.996V788.072c0 24.84 23.348 44.996 52.205 44.996h487.214c28.852 0 52.2-20.154 52.2-44.996v-780.004c0-24.842-23.348-44.996-52.2-44.996z m-243.61 44.996c19.204 0 34.804 13.458 34.804 30.008 0 16.55-15.6 30.008-34.804 30.008-19.2 0-34.798-13.458-34.798-30.008-0.001-16.55 15.598-30.008 34.798-30.008z m243.61 735.008H268.394V113.08h487.214V743.076z"  horiz-adv-x="1024" />

    
    <glyph glyph-name="bao" unicode="&#58891;" d="M873.699 93.639c0-7.282-5.917-13.085-13.085-13.085h-64.512v491.406h64.512c7.168 0 13.085-5.803 13.085-13.085v-465.237zM149.618 93.639v465.237c0 7.168 5.917 13.085 13.085 13.085h64.512v-491.293h-64.512c-7.168 0-13.085 5.803-13.085 12.971zM214.357 610.759h77.597v-12.971h-77.597v12.971zM369.437 571.961h400.839v-491.293h-517.234v491.293h116.395zM395.378 672.768c0 8.533 6.941 15.587 15.587 15.587h201.614c8.533 0 15.587-6.941 15.587-15.587v-74.979h-232.789v74.979zM731.477 610.759h77.597v-12.971h-77.597v12.971zM860.615 597.789h-25.714v38.798h-129.251v-38.798h-51.769v74.979c0 22.869-18.546 41.415-41.415 41.415h-201.614c-22.869 0-41.415-18.546-41.415-41.415v-74.979h-51.769v38.798h-129.251v-38.798h-25.714c-21.504 0-38.912-17.408-38.912-38.912v-465.237c0-21.504 17.522-38.912 38.912-38.912h697.913c21.504 0 38.912 17.522 38.912 38.912v465.237c0.114 21.504-17.408 38.912-38.912 38.912z"  horiz-adv-x="1024" />

    
    <glyph glyph-name="xiaolian" unicode="&#58888;" d="M512-72.448c-251.68 0-456.416 204.768-456.416 456.448 0 251.648 204.736 456.416 456.416 456.416 251.68 0 456.448-204.736 456.448-456.416-0.032-251.68-204.768-456.448-456.448-456.448zM512 792.416c-225.184 0-408.416-183.232-408.416-408.416 0-225.216 183.232-408.448 408.416-408.448 225.216 0 408.448 183.232 408.448 408.448-0.032 225.184-183.232 408.416-408.448 408.416zM512 114.976c-89.472 0-174.176 39.2-232.48 107.52-8.64 10.048-7.392 25.216 2.688 33.824 9.984 8.64 25.184 7.392 33.824-2.688 49.152-57.6 120.608-90.656 195.968-90.656 75.392 0 146.848 33.056 196 90.656 8.672 10.080 23.808 11.328 33.824 2.688 10.080-8.608 11.328-23.744 2.688-33.824-58.304-68.32-143.040-107.52-232.512-107.52zM368.064 390.976h-5.824c-21.312 0-38.624 17.312-38.624 38.624v69.152c0 21.28 17.312 38.592 38.624 38.592h5.824c21.28 0 38.592-17.312 38.592-38.592v-69.152c0-21.312-17.312-38.624-38.592-38.624zM661.76 390.976h-5.824c-21.28 0-38.592 17.312-38.592 38.624v69.152c0 21.28 17.312 38.592 38.592 38.592h5.824c21.28 0 38.592-17.312 38.592-38.592v-69.152c0-21.312-17.312-38.624-38.592-38.624z"  horiz-adv-x="1024" />

    
    <glyph glyph-name="alipay" unicode="&#58934;" d="M1018.8 51.134v-6c0-89.4-73-162.6-162.2-162.6h-689.2c-89.2 0-162.2 73.2-162.2 162.6v688.6c0 89.4 73 162.6 162.2 162.6h689.4c89.2 0 162.2-73.2 162.2-162.6v-524.2l-0.2-158.4zM278.8 116.134c-158.2 0-204.8 124-125.8 193 26.4 22.4 73 34.6 99.4 36.6 93.2 10.2 180.4-26.4 283.8-77.2-74.8-93.6-166.2-152.4-257.4-152.4v0zM840.4 260.334c-40.6 14.2-95.2 34.6-156.2 56.8 36.4 63 64.8 136.2 85.2 213.4h-200.6v71.2h245.2v40.6h-245.4v119.8h-99.4c-18.2 0-18.2-18.2-18.2-18.2v-103.6h-247.2v-40.6h247.4v-69h-204.8v-40.6h397.4c-14.2-50.8-34.4-97.6-56.8-140.2-127.8 42.6-265.6 77.2-352.8 54.8-54.8-14.2-91.2-38.6-111.6-63-95.2-115.8-26.4-292.6 174.4-292.6 119.6 0 235.2 67 324.4 176.8 133.8-65 397.4-174.8 397.4-174.8v156.4c0 0-32.4 4-178.4 52.8z"  horiz-adv-x="1024" />

    
    <glyph glyph-name="qiandun" unicode="&#58918;" d="M488.479052 435.086579l-117.529588 114.733453h77.806084l62.643939-62.000698 62.657068 62.000698h77.792956l-117.529588-114.733453h73.854737c14.505774 0 26.267922-11.670256 26.267922-26.294176a26.333559 26.333559 0 0 0-26.254794-26.294177h-69.995283v-37.045515h69.969028c14.505774 0 26.267922-11.670256 26.267922-26.294177a26.333559 26.333559 0 0 0-26.254795-26.294177h-69.982155v-22.815416a26.202285 26.202285 0 0 0-26.162903-26.176031h-0.616987c-14.440137 0-26.162903 11.670256-26.162903 26.176031V292.864357h-69.982155c-14.505774 0-26.254795 11.683384-26.254795 26.294177 0 14.518901 11.814658 26.294177 26.254795 26.294177h69.982155v37.045515h-69.982155c-14.505774 0-26.254795 11.683384-26.254795 26.294177 0 14.518901 11.814658 26.294177 26.254795 26.294176h73.211495z m54.701864-559.594691c-9.294197-1.601542-18.837815-2.481078-28.578344-2.546715a176.98357 176.98357 0 0 0-5.159067-0.039383c-10.160606 0-20.137427 0.879536-29.825446 2.546715a143.587472 143.587472 0 0 0-47.206121 14.308864c-11.880295 5.474125-46.641643 22.39534-98.613008 55.47638-65.072508 41.430066-144.04693 123.502554-144.046931 123.502554l0.341312-0.091892a372.030439 372.030439 0 0 0-99.820729 192.998995c-10.042459 42.033926-25.257112 111.084036-35.391463 181.775071C38.603147 556.948208 39.430173 640.057761 39.430173 640.057761l0.288802-0.144402c1.654052 51.984493 29.247841 97.536562 70.454742 124.460854l-0.091892 0.052509s66.17521 45.158247 157.87008 77.202224C359.633647 873.659795 428.998815 885.89453 428.998815 885.89453l-0.039383-0.05251c8.795356 2.415441 17.827006 4.266404 27.042439 5.526634 3.203085 0.525096 6.432425 0.997682 9.688019 1.391504a292.885361 292.885361 0 0 0 73.749718 1.575288c9.267942-0.472586 18.404611-1.457141 27.370623-2.92741 9.202305-1.26023 18.233955-3.111193 27.042439-5.526634l-0.039382 0.05251s69.35204-12.221607 161.04691-44.265584c91.681743-32.030849 157.856952-77.202223 157.856952-77.202223l-0.078764-0.05251c41.193773-26.911164 68.787562-72.463233 70.441613-124.460854l0.301931 0.131274s0.813899-83.096425-15.464074-196.622156c-10.134351-70.691034-25.335877-139.741144-35.378336-181.77507a372.030439 372.030439 0 0 0-99.833857-192.998995l0.341313 0.091891s-78.974422-82.072488-144.046931-123.502553c-51.971366-33.081041-86.732714-50.015384-98.613008-55.476381-14.545156-7.325088-30.442434-12.260989-47.206121-14.308863zM512.003348 129.139458c154.470084 0 279.692327 124.132669 279.692326 277.263758S666.473432 683.680102 512.003348 683.680102c-154.470084 0-279.692327-124.145796-279.692327-277.276886S357.533264 129.139458 512.003348 129.139458z"  horiz-adv-x="1024" />

    
    <glyph glyph-name="dayuhao" unicode="&#58885;" d="M744.909 386.153c-0.43 4.851-2.499 9.586-6.222 13.299l-425.527 425.558c-8.406 8.396-22.008 8.396-30.393 0-8.406-8.396-8.406-21.998 0-30.394l410.499-410.529-410.499-410.528c-8.406-8.397-8.406-21.999 0-30.394 8.406-8.397 21.987-8.397 30.393 0l425.567 425.6c4.758 4.756 6.813 11.183 6.181 17.388z"  horiz-adv-x="1024" />

    
    <glyph glyph-name="computer_icon" unicode="&#58995;" d="M988.304 805.875h-816.531c-45.077-0.050-81.605-36.581-81.65-81.654v-544.348c0.050-45.073 36.576-81.599 81.644-81.65h381.051v-81.659h-136.087c-15.031-0.003-27.216-12.188-27.216-27.219s12.185-27.218 27.215-27.219h326.617c15.031 0.003 27.216 12.188 27.216 27.219s-12.185 27.217-27.215 27.219h-136.087v81.65h381.045c45.077 0.050 81.605 36.581 81.65 81.654v544.348c-0.045 45.078-36.572 81.609-81.644 81.659zM171.775 751.435h816.531c15.028-0.011 27.207-12.191 27.219-27.218v-462.697h-870.96v462.695c0.011 15.025 12.186 27.203 27.207 27.219zM988.304 152.652h-816.531c-15.028 0.011-27.207 12.191-27.219 27.218v27.211h870.96v-27.219c-0.017-15.022-12.188-27.193-27.209-27.21z"  horiz-adv-x="1189" />

    
    <glyph glyph-name="lantern-currency" unicode="&#58899;" d="M979.8 379.20000000000005c0-278.1-210.8-464.8-464.8-464.8-256.7 0-464.8 208.1-464.8 464.8S258.3 844 515 844s464.8-208.1 464.8-464.8zM515-117.60000000000002c-67.1 0-132.1 13.1-193.4 39.1-59.2 25-112.3 60.8-157.9 106.5-45.6 45.6-81.4 98.8-106.5 157.9-25.9 61.3-39.1 126.3-39.1 193.4 0 67.1 13.1 132.1 39.1 193.4 25 59.2 60.8 112.3 106.5 157.9C209.3 776.1 262.4 812 321.6 837 382.9 862.9 447.9 876 515 876c67.1 0 132.1-13.1 193.4-39.1 59.2-25 112.3-60.8 157.9-106.5 45.6-45.6 81.4-98.8 106.5-157.9 25.9-61.3 39.1-126.3 39.1-193.4 0-71.9-13.3-140-39.4-202.3C947.4 117 911.2 64 865 19.399999999999977c-91.8-88.3-216-137-350-137zM515 812C276.3 812 82.2 617.9 82.2 379.20000000000005S276.3-53.60000000000002 515-53.60000000000002c246.8 0 432.8 186.1 432.8 432.8C947.8 617.9 753.7 812 515 812zM430.6 645.4v13c0.9 16-2.8 15.8 9.4 22.9 15.9 9.4 50 19.5 92.5 18.7 42.3-0.8 72.3-5.1 98-22.4 5.9-4 4.4-7.2 4.4-14.1v-18.2C740.7 630.2 823 562.1 820 447.2c-2-76-69.8-159.3-157-174.6v-51.7c-0.1-9.6 0.7-7.8-3.3-10.1-18.2-10.5-51.2-16.6-88.1-18.8-3.1-50.2-72.3-77.6-117.2-80.8-72.8-5.1-112.5-55.1-112.5-55.1-12.9 27-75.6 48.4-75.6 48.4 41.3 54.7 180.7 57.3 180.7 57.3 53.9 0 51.2 26.7 50.5 30.6-37.1 2.5-70.8 8.4-89.9 17.1-4.5 2-5.1 3.5-5.1 8.3v54.8s-145.1 27.5-155.9 174.6c-7.5 101.6 73.4 183.9 184 198.2z m0.2-346.2l202.6 0.3c7.1 0 5.7-0.5 12.1 2.9 21.3 11.4 93.1 53 92.2 145.1-1 104.4-102.3 152.9-204.5 153.2-106 0.3-205.7-50.1-204.2-153.5 0.4-24.1 1.5-101.1 98.4-147.2 1.7-0.8 1.4-0.8 3.4-0.8zM511.1 555.6l124.6-87.9c13.1-9.4 13.1-33 0-42.4l-124.6-88.2c-13.1-9.4-34.8-2.7-34.8 16.2V539.7c-0.1 18.9 21.6 25.4 34.8 15.9zM417.3 646.6v12.9c0.8 15.9-2.8 15.7 9.3 22.8 15.8 9.3 49.6 19.3 91.8 18.5 42-0.8 71.7-5.1 97.3-22.2 5.9-3.9 4.4-7.1 4.4-14v-18.1c105.1-15.1 186.9-82.7 183.8-196.8-2-75.4-69.3-158.2-155.8-173.4V225c-0.1-9.5 0.7-7.8-3.3-10.1-18-10.5-50.9-16.5-87.4-18.7-3.1-49.8-71.8-77.1-116.4-80.2-72.3-5.1-111.7-54.7-111.7-54.7-12.8 26.9-75.1 48-75.1 48 41 54.3 179.4 56.9 179.4 56.9 53.5 0 50.8 26.6 50.1 30.4-36.9 2.5-70.3 8.4-89.3 17-4.5 2-5 3.5-5.1 8.2v54.4s-144.1 27.3-154.8 173.3c-7.4 101.2 72.9 182.9 182.8 197.1z m0.1-343.7l201.2 0.3c7 0 5.7-0.5 12 2.8 21.1 11.3 92.5 52.6 91.6 144.1-1 103.6-101.6 151.8-203.1 152.2-105.3 0.3-204.3-49.7-202.7-152.4 0.4-24 1.5-100.4 97.7-146.2 1.7-0.8 1.4-0.8 3.3-0.8zM489.2 557.5l123.7-87.3c13-9.4 13-32.8 0-42.1l-123.7-87.6c-13-9.4-34.6-2.6-34.6 16.1V541.7c0 18.7 21.6 25.1 34.6 15.8zM514.3-71.10000000000002c-60.2 0-118.7 11.8-173.7 35.1-53.1 22.5-100.9 54.6-141.8 95.6-41 41-73.1 88.7-95.6 141.8-23.3 55-35.1 113.5-35.1 173.7s11.8 118.7 35.1 173.7c22.5 53.1 54.6 100.9 95.6 141.8 41 41 88.7 73.1 141.8 95.6 55 23.3 113.5 35.1 173.7 35.1 60.2 0 118.7-11.8 173.7-35.1 53.1-22.5 100.9-54.6 141.8-95.6 41-41 73.1-88.7 95.6-141.8 23.3-55 35.1-113.5 35.1-173.7s-11.8-118.7-35.1-173.7c-22.5-53.1-54.6-100.9-95.6-141.8-41-41-88.7-73.1-141.8-95.6-55-23.3-113.4-35.1-173.7-35.1z m0 877.4c-237.8 0-431.2-193.4-431.2-431.2s193.4-431.2 431.2-431.2c237.8 0 431.2 193.4 431.2 431.2S752.1 806.3 514.3 806.3z"  horiz-adv-x="1024" />

    
    <glyph glyph-name="xinshoushanglu" unicode="&#59120;" d="M510.2 832.1c-247.3 0-447.8-200.5-447.8-447.8s200.5-447.8 447.8-447.8S958 137 958 384.3c0.2 247.1-200 447.6-447.2 447.8h-0.6z m26.5-710.8h-79.3v79.5h79.3v-79.5z m93.1 313.1c-13.7-21-30.1-40.1-48.7-57-17.5-14.7-32.5-32.2-44.5-51.6-5.6-17.1-8-35.1-7-53l7-20.8h-79.3l-1.4 22.2c0.7 23.3 4.9 46.4 12.5 68.4 12.8 25.3 29.8 48.3 50.2 68.1 15.9 15.3 30.3 32.1 43 50.2 4.9 9.9 7.3 20.9 6.9 31.9 1.1 17.2-5.4 34-17.9 45.8-14.3 12.3-32.7 18.7-51.5 17.9-47.3 0-63.9-33.3-68.1-93.1h-79.2V472c0 22.2 3.8 44.2 11.1 65.2 7 17.5 18 33.2 32 45.8 14.4 13.3 31.5 23.4 50.2 29.4 18 5.9 36.7 9.2 55.6 9.7 37.2 1.1 73.4-11.8 101.5-36.2 27.1-25 41.8-60.6 40.3-97.5 0.5-18.8-3.8-37.4-12.5-54.1h-0.2z"  horiz-adv-x="1024" />

    
    <glyph glyph-name="shangcheng" unicode="&#58939;" d="M512 417.28c-115.7376 0-209.92 94.1824-209.92 209.92a25.6 25.6 0 0 0 51.2 0c0-87.5264 71.1936-158.72 158.72-158.72s158.72 71.1936 158.72 158.72a25.6 25.6 0 1 0 51.2 0c0-115.7376-94.1824-209.92-209.92-209.92zM716.8-38.4H307.2c-127.0272 0-230.4 103.3472-230.4 230.4v409.6c0 127.0272 103.3728 230.4 230.4 230.4h409.6c127.0528 0 230.4-103.3728 230.4-230.4v-409.6c0-127.0528-103.3472-230.4-230.4-230.4z m-409.6 819.2c-98.816 0-179.2-80.384-179.2-179.2v-409.6c0-98.7904 80.384-179.2 179.2-179.2h409.6c98.7904 0 179.2 80.4096 179.2 179.2v409.6c0 98.816-80.4096 179.2-179.2 179.2H307.2z"  horiz-adv-x="1024" />

    
    <glyph glyph-name="shouji1" unicode="&#58886;" d="M394.395 100.10900000000004c-26.407 0-47.89-21.482-47.89-47.891 0-26.407 21.484-47.891 47.89-47.891 26.408 0 47.893 21.483 47.893 47.891C442.287 78.62699999999995 420.803 100.10900000000004 394.395 100.10900000000004zM631.334 853.931L157.458 853.931c-39.865 0-72.298-32.433-72.298-72.298l0-795.266c0-39.866 32.433-72.298 72.298-72.298l473.875 0c39.865 0 72.297 32.432 72.297 72.298L703.63 781.633C703.631 821.498 671.199 853.931 631.334 853.931zM157.458 805.732l473.875 0c13.289 0 24.1-10.812 24.1-24.1l0-595.808L133.359 185.82399999999996 133.359 781.633C133.359 794.921 144.17 805.732 157.458 805.732zM631.334-37.730999999999995L157.458-37.730999999999995c-13.288 0-24.1 10.81-24.1 24.099L133.358 133.5l522.075 0 0-147.133C655.434-26.922000000000025 644.623-37.730999999999995 631.334-37.730999999999995z"  horiz-adv-x="1024" />

    
    <glyph glyph-name="icon-shang" unicode="&#58887;" d="M512.133 496.483l-292.16-292.155c-12.27-12.28-32.186-12.28-44.457 0-12.28099999 12.27-12.281 32.186 0 44.457l314.388 314.388c12.27 12.28 32.186 12.28 44.457 0l314.387-314.388c6.14-6.136 9.211-14.183 9.211-22.228s-3.071-16.092-9.211-22.228c-12.27-12.28-32.186-12.28-44.457 0l-292.159 292.155z"  horiz-adv-x="1024" />

    
    <glyph glyph-name="taobao" unicode="&#59023;" d="M157.461312 896h708.074437c86.252693 0 157.461312-70.205681 157.461313-156.458374v-710.080314c0-86.252693-71.208619-156.458374-157.461313-156.458374H157.461312c-86.252693 0-157.461312 70.205681-157.461312 156.458374V740.544564C0 825.794319 71.208619 896 157.461312 896zM163.478942 636.238981c4.011753 9.026445 9.026445 16.047013 17.049951 23.067581 7.020568 7.020568 15.044074 12.03526 25.073458 16.047013 9.026445 4.011753 19.055828 5.014691 30.088149 5.014691s21.061704-2.005877 30.088148-5.014691c10.029383-4.011753 18.052889-9.026445 25.073458-16.047013 7.020568-6.01763 13.038198-14.041136 17.049951-23.067581 4.011753-9.026445 6.01763-18.052889 6.01763-28.082272 0-10.029383-2.005877-19.055828-6.01763-28.082272-4.011753-9.026445-10.029383-16.047013-17.049951-23.067581-7.020568-6.01763-15.044074-11.032321-25.073458-15.044074-10.029383-4.011753-20.058766-6.01763-30.088148-6.01763-11.032321 0-21.061704 2.005877-30.088149 6.01763-9.026445 4.011753-17.049951 9.026445-25.073458 15.044074-7.020568 6.01763-13.038198 14.041136-17.049951 23.067581-4.011753 9.026445-6.01763 18.052889-6.01763 28.082272 0 10.029383 2.005877 19.055828 6.01763 28.082272z m150.440745-312.916748c-4.011753-22.064643-13.038198-46.135162-26.076396-70.205681-10.029383-18.052889-18.052889-34.099902-25.073458-50.146914-6.01763-15.044074-13.038198-30.088149-19.055827-44.129285-6.01763-14.041136-12.03526-27.079334-18.052889-41.120471-6.01763-13.038198-12.03526-27.079334-18.05289-40.117531-10.029383 7.020568-20.058766 15.044074-30.088149 22.064642-10.029383 7.020568-21.061704 15.044074-31.091087 23.067581-10.029383 7.020568-20.058766 15.044074-30.088149 22.064642-10.029383 8.023506-21.061704 15.044074-31.091087 22.064643 12.03526 9.026445 23.067581 17.049951 35.10284 26.076396 12.03526 8.023506 23.067581 16.047013 35.102841 25.073457 11.032321 9.026445 23.067581 18.052889 34.099902 27.079334 11.032321 9.026445 21.061704 18.052889 30.088149 28.082272 19.055828 19.055828 28.082272 36.105779 28.082272 53.15573 0 17.049951-5.014691 33.096964-16.047013 48.141038s-27.079334 29.085211-47.1381 43.126347-41.12047 27.079334-64.188051 39.114593c4.011753 5.014691 9.026445 10.029383 13.038198 15.044075s9.026445 10.029383 13.038198 15.044074c5.014691 5.014691 9.026445 11.032321 14.041136 16.047013 5.014691 5.014691 9.026445 10.029383 14.041136 15.044074 37.108717-21.061704 66.193928-42.123408 87.255632-64.18805 21.061704-21.061704 36.105779-42.123408 44.129285-64.188051 9.026445-22.064643 12.03526-44.129285 8.023507-66.193928z m622.824681 29.085211c-1.002938-25.073457-2.005877-49.143976-4.011753-72.211558s-4.011753-47.1381-8.023506-71.208619c-4.011753-27.079334-9.026445-48.141038-17.049951-64.188051-8.023506-16.047013-18.052889-28.082272-30.088149-37.108716-11.032321-9.026445-25.073457-15.044074-40.117532-18.05289-15.044074-3.008815-32.094025-5.014691-50.146915-5.014691-13.038198-1.002938-39.114594 0-39.114593 0H712.08619c-14.041136 0-28.082272 0-41.12047 1.002938-13.038198 0-27.079334 1.002938-41.12047 1.002938 0 4.011753 0 8.023506-1.002939 12.03526 0 4.011753-1.002938 8.023506-1.002938 12.035259-1.002938 5.014691-1.002938 9.026445-1.002938 13.038198s0 8.023506-1.002938 12.03526h75.220372c8.023506 0 16.047013 0 24.070519 1.002938 16.047013 1.002938 29.085211 3.008815 41.12047 7.020568 12.03526 3.008815 22.064643 9.026445 29.085211 17.049951 8.023506 8.023506 14.041136 18.052889 18.052889 31.091087 4.011753 13.038198 6.01763 29.085211 6.01763 49.143977l4.011753 149.437806c1.002938 20.058766 1.002938 40.117532 1.002938 61.179236 0 21.061704-2.005877 40.117532-7.020568 57.167483-5.014691 17.049951-13.038198 32.094025-24.070519 45.132223-11.032321 12.03526-27.079334 21.061704-48.141038 25.073458-16.047013 3.008815-31.091087 5.014691-47.1381 5.014691s-32.094025-2.005877-48.141038-3.008815c-16.047013-1.002938-32.094025-2.005877-47.1381-5.014691-16.047013-2.005877-32.094025-4.011753-49.143977-5.014692-3.008815 0-5.014691 0-9.026444-1.002938-3.008815-1.002938-6.01763-1.002938-10.029383-1.002938-3.008815-1.002938-5.014691-2.005877-9.026445-3.008815-3.008815-1.002938-7.020568-2.005877-10.029383-3.008815l50.146915-38.111655-41.12047-38.111656h250.734574v-50.146914h-150.440745v-60.176298h150.440745v-40.117532h-150.440745v-104.305583c6.01763 2.005877 12.03526 3.008815 18.05289 5.014692l18.052889 3.008815c6.01763 2.005877 12.03526 3.008815 18.052889 4.011753 6.01763 1.002938 12.03526 2.005877 18.05289 4.011753-3.008815 3.008815-5.014691 6.01763-7.020568 9.026445-2.005877 3.008815-4.011753 7.020568-7.020569 9.026444-2.005877 3.008815-4.011753 7.020568-6.017629 10.029383-2.005877 3.008815-4.011753 6.01763-6.01763 10.029383 5.014691 2.005877 10.029383 4.011753 14.041136 5.014692 5.014691 2.005877 10.029383 4.011753 16.047013 7.020568 5.014691 2.005877 10.029383 3.008815 15.044074 5.014691s10.029383 3.008815 15.044075 5.014692c12.03526-7.020568 22.064643-15.044074 30.088149-23.067581 8.023506-8.023506 15.044074-17.049951 19.055827-27.079334 5.014691-10.029383 7.020568-20.058766 9.026445-30.088149 1.002938-10.029383 1.002938-22.064643-2.005877-34.099902-4.011753-4.011753-9.026445-8.023506-14.041136-12.03526-5.014691-4.011753-9.026445-8.023506-14.041136-11.032321-5.014691-4.011753-10.029383-7.020568-15.044075-11.032321-5.014691-4.011753-9.026445-8.023506-14.041136-11.032321-3.008815 3.008815-5.014691 7.020568-8.023506 12.035259-2.005877 4.011753-5.014691 9.026445-7.020568 13.038198-3.008815 3.008815-5.014691 7.020568-8.023506 12.03526-2.005877 4.011753-5.014691 9.026445-7.020569 13.038197-71.208619-25.073457-132.387855-42.123408-182.534769-50.146914-50.146915-8.023506-91.267385-9.026445-121.355534-1.002939-30.088149 9.026445-50.146915 25.073457-59.17336 50.146915-9.026445 24.070519-8.023506 58.170421 4.011754 100.29383h104.305582c0-17.049951 1.002938-30.088149 3.008815-40.117532 2.005877-10.029383 5.014691-18.052889 8.023507-24.070519 5.014691-5.014691 10.029383-9.026445 16.047012-11.032321 6.01763-2.005877 14.041136-4.011753 23.067581-5.014692h5.014692v120.352596h-140.411362v40.117531h140.411362v60.176298h-20.058766v7.020568l-66.193928-60.176298-54.158668 27.079334 105.308521 135.39667c-11.032321-4.011753-22.064643-10.029383-32.094025-16.047012-10.029383-6.01763-20.058766-13.038198-30.088149-20.058766-9.026445-7.020568-17.049951-15.044074-25.073457-23.067581-8.023506-8.023506-15.044074-16.047013-23.067581-25.073457-1.002938-3.008815-2.005877-5.014691-3.008815-7.020569-1.002938-2.005877-2.005877-5.014691-3.008815-7.020568l-3.008815-6.017629c-1.002938-2.005877-2.005877-5.014691-3.008815-7.020568-7.020568 5.014691-13.038198 10.029383-20.058766 15.044074-6.01763 5.014691-13.038198 9.026445-20.058766 14.041136-6.01763 5.014691-13.038198 9.026445-19.055827 14.041136l-21.061705 15.044075c11.032321 17.049951 21.061704 33.096964 32.094026 50.146914 11.032321 16.047013 22.064643 33.096964 32.094025 50.146915 11.032321 16.047013 22.064643 32.094025 32.094026 48.141038 11.032321 16.047013 22.064643 33.096964 32.094025 50.146915l27.079334-9.026444 27.079334-9.026445 27.079334-9.026445 27.079334-9.026444c-3.008815-5.014691-5.014691-10.029383-7.020568-15.044075-2.005877-5.014691-4.011753-10.029383-7.020568-14.041136l-6.01763-15.044074c-2.005877-5.014691-4.011753-9.026445-6.017629-14.041137 42.123408 19.055828 89.261508 34.099902 141.414299 43.126347 51.149853 9.026445 99.290891 11.032321 144.423115 6.01763 44.129285-4.011753 82.24094-18.052889 113.332027-40.117532 31.091087-22.064643 49.143976-55.161606 52.152792-98.287953 3.008815-28.082272 4.011753-55.161606 5.014691-81.238002 8.023506-26.076396 8.023506-51.149853 7.020568-76.22331z"  horiz-adv-x="1024" />

    
    <glyph glyph-name="gouwuche" unicode="&#58890;" d="M347.136 112.63999999999999q19.456 0 36.864-7.168t30.72-19.968 20.48-30.208 7.168-36.864-7.168-36.864-20.48-30.208-30.72-20.48-36.864-7.68q-20.48 0-37.376 7.68t-30.208 20.48-20.48 30.208-7.168 36.864 7.168 36.864 20.48 30.208 30.208 19.968 37.376 7.168zM773.12 110.59199999999998q19.456 0 37.376-7.168t30.72-19.968 20.48-30.208 7.68-36.864-7.68-36.864-20.48-30.208-30.72-20.48-37.376-7.68-36.864 7.68-30.208 20.48-20.48 30.208-7.68 36.864 7.68 36.864 20.48 30.208 30.208 19.968 36.864 7.168zM945.152 692.2239999999999q28.672 0 44.544-7.68t22.528-18.944 6.144-24.064-3.584-22.016-12.8-37.888-22.016-62.976-24.064-68.096-17.92-53.248q-13.312-40.96-33.792-56.832t-50.176-15.872l-34.816 0-66.56 0-87.04 0-95.232 0-253.952 0 15.36-92.16 516.096 0q49.152 0 49.152-41.984 0-20.48-9.728-35.328t-38.4-14.848l-49.152 0-95.232 0-117.76 0-119.808 0-98.304 0-56.32 0q-20.48 0-34.304 9.216t-23.04 24.064-14.848 32.256-8.704 32.768q-1.024 6.144-5.632 29.696t-11.264 58.88-14.848 78.848-16.384 87.552q-19.456 103.424-44.032 230.4l-76.8 0q-15.36 0-25.6 7.68t-16.896 18.432-9.216 23.04-2.56 22.528q0 20.48 13.824 33.792t37.376 13.312l22.528 0 20.48 0 25.6 0 34.816 0q20.48 0 32.768-6.144t19.456-15.36 10.24-19.456 5.12-17.408q2.048-8.192 4.096-23.04t4.096-30.208q3.072-18.432 6.144-38.912l700.416 0z"  horiz-adv-x="1024" />

    
    <glyph glyph-name="hengxian" unicode="&#58980;" d="M0 789.5h1024M0 810.8h1024v-42.7H0zM0-21.5h1024M0-0.2h1024v-42.7H0zM0 384h1024M0 405.3h1024v-42.7H0z"  horiz-adv-x="1024" />

    
    <glyph glyph-name="tianmao" unicode="&#58900;" d="M885.18416 896H138.80016C62.35216 896 0.00016 834.768 0.00016 757.456v-744.912a138.32 138.32 0 0 1 138.816-138.56h746.384c76.432 0 138.816 61.248 138.816 138.56V757.456C1024.00016 834.768 961.63216 896 885.18416 896z m0 0M928.43216-119.984a145.6 145.6 0 0 0-40.256-6.032c12.112 0 25.168 2.032 40.256 6.032z m0 0M0.00016 757.456v-678.672V757.456z m95.552-877.44c15.104-4 28.16-6.032 42.256-6.032-14.096 0-27.152 2.032-42.256 6.032z m0 0M936.46416-74.8c0 59.216-47.248 110.432-106.624 112.432-2 2-4 2-6.032 2-2 0-4.032 0-6.032-2h13.056c17.12-8.032 30.192-55.216 30.192-112.432 0-19.088-2-36.128-4-51.216h30.16c15.088 0 28.16 2.032 40.256 6.032 7.024 15.056 9.024 30.128 9.024 45.184z m0 0M207.21616 37.648c-2.016 2-4.032 2-6.048 2s-4.016 0-6.016-2h12.064z m0 0M194.12816 37.648c-59.36-2-106.624-53.216-106.624-112.432 0-15.056 4.016-30.128 11.056-45.184 13.072-4 25.136-6.032 40.24-6.032h30.176c-2.016 15.088-4.016 32.128-4.016 51.216-0.992 57.2 12.064 104.4 29.168 112.432z m622.656 0c-59.344-2-106.624-53.216-106.624-112.432 0-19.088 4.032-36.128 13.056-51.216h68.4c-2 15.088-4.032 32.128-4.032 51.216 0.016 57.2 12.096 104.4 29.2 112.432zM533.12016-51.696h-42.256c-13.072 0-17.088-6.032-11.056-15.056l13.072-17.056c4.016-6.032 11.072-15.056 13.088-19.072 2-2.016 2-2.016 6.032-2.016s6.032 2.016 6.032 2.016c4.032 4.016 8.048 13.04 13.072 19.072l11.056 17.056c8.048 9.024 4.032 15.056-9.04 15.056z m-325.904 89.344c17.088-8.032 32.192-55.216 32.192-112.432 0-19.088-2.016-36.128-4.032-51.216h68.4a107.552 107.552 0 0 1 13.056 51.216c-2.992 59.2-50.272 110.432-109.616 112.432z m721.216-157.632c19.088 6.032 38.224 17.072 53.312 30.128-17.088-13.056-34.208-23.104-53.312-30.128z m0 0M47.28016-89.856C19.10416-63.744 0.00016-27.616 0.00016 12.544V80.8v-68.256c0-40.16 17.088-76.288 47.28-102.4z m48.272-30.128c-19.104 6.032-36.208 15.056-51.296 30.128 15.072-13.056 35.2-23.104 51.296-30.128z m0 0M978.72016 212.32c-40.224 23.104-81.472-19.056-87.504-28.096-53.312-61.232-112.656-135.552-219.28-135.552H352.04816c-106.624 0-163.968 76.32-219.28 136.544-8.064 8.032-47.28 51.216-87.52 28.128C9.04016 191.248 2.00016 124.992 0.00016 80.8v-70.256c0-40.16 17.088-76.32 47.28-102.4a164.528 164.528 0 0 1 51.296-30.128c-6.048 13.056-11.056 28.096-11.056 45.184 0 59.216 47.264 110.416 106.624 112.432 2.016 2 4.016 2 6.032 2s4.032 0 6.032-2c59.328-2.016 106.64-53.216 106.64-112.432 0-19.088-4.032-36.16-13.072-51.2h422.448a107.696 107.696 0 0 0-13.04 51.2c0 59.216 47.28 110.416 106.624 112.432 2 2 4 2 6.032 2 2 0 4.032 0 6.032-2 59.344-2.016 106.624-53.216 106.624-112.432 0-15.056-4.032-30.128-11.056-45.184 19.12 6.032 38.224 17.056 53.312 30.128a134.4 134.4 0 0 1 45.248 100.4v70.256c-0.032 46.192-7.056 112.448-43.28 133.52zM544.19216-66.768l-11.056-15.056c-6.032-6.032-11.072-15.056-13.088-19.056-2.016-2.016-4.016-4.032-8.048-4.032s-6.032 2.016-6.032 2.016c-4.032 4.016-8.048 13.04-13.088 19.072l-13.072 17.056c-6.032 8.032 0 15.056 11.056 15.056h42.256c13.072 0.016 17.088-6.016 11.072-15.056z m0 0M829.84016 37.648h-13.056c-17.088-8.032-30.192-55.216-30.192-112.432 0-19.088 2.032-36.128 4.032-51.216h66.4c2 15.088 4 32.128 4 51.216-0.992 57.2-14.048 104.4-31.184 112.432z m-622.624 0h-13.072c-17.104-8.032-32.192-55.216-32.192-112.432 0-19.088 2.016-36.128 4.016-51.216h66.384c2.016 15.088 4.032 32.128 4.032 51.216 0 57.2-12.08 104.4-29.168 112.432z m0 0M340.99216 542.624h146.864v38.144H336.96016V662.08h136.816v40.176H161.95216v-38.144h136.8v-81.328H146.84816v-38.144h146.864c-15.072-57.216-61.36-106.416-146.864-155.616l19.104-34.144c53.312 30.128 119.696 74.304 153.904 142.576 8.048-17.072 19.104-34.128 34.208-51.216 28.16-32.128 66.384-61.232 119.696-91.36l19.104 34.144c-89.52 47.184-136.784 96.368-151.872 153.6z m339.984 66.272h38.256v32.128h83.472v-32.128h38.224v32.128h38.256v38.144h-38.256v23.088h-38.224v-25.088h-83.472v25.088h-38.256v-25.088h-36.192v-38.16h36.192v-30.112z m-77.44 74.272c-21.12 21.088-55.328 21.088-74.432 19.088h-4.016v-38.144h6.016c13.088 0 36.224 0 47.28-8.032 2.032-2.016 6.032-6.032 6.032-19.072v-13.04l-59.328-36.144 19.12-34.128 40.224 23.088v-42.16l-59.328-36.144 19.12-34.128 40.224 23.088v-32.128c0-8.016-4-23.088-11.056-30.112-19.104-23.088-49.28-40.16-49.28-40.16l19.12-34.144c2 0 38.224 21.088 59.344 49.216 11.056 15.024 19.12 36.128 19.12 55.2V633.984c-1.072 21.072-7.104 36.128-18.16 49.184z m40.24-100.4v-174.672c0-32.128 25.12-57.232 57.312-57.232H820.80016c32.192 0 57.344 25.104 57.344 57.232V582.768H643.77616z m98.56-191.744H702.08016c-11.056 0-19.088 8.032-19.088 19.072v38.144h59.344v-57.216z m0 96.384h-59.344v57.216h59.344v-57.216z m98.576-79.312c0-11.04-8.032-19.072-19.088-19.072h-40.256v59.232h59.344v-40.16z m0 79.312h-59.344v57.216h59.344v-57.216z m0 0"  horiz-adv-x="1024" />

    
    <glyph glyph-name="zhuanzailiang" unicode="&#58889;" d="M908.8 7.68H174.592c-17.92 0-32.256 14.336-32.256 32.256v160.256c0 17.92 14.336 32.256 32.256 32.256h28.672c17.92 0 32.256-14.336 32.256-32.256 0-4.096-1.024-8.704-2.56-12.288l-12.288-62.464c0-17.92 14.336-32.256 32.256-32.256h577.536c17.92 0 32.256 14.336 32.256 32.256l-12.288 62.464c-1.536 4.096-2.56 8.192-2.56 12.288 0 17.92 14.336 32.256 32.256 32.256h28.672c17.92 0 32.256-14.336 32.256-32.256v-160.256c-0.512-17.92-14.848-32.256-32.256-32.256z m-301.568 302.592h1.024l-1.024-1.024v1.024z m238.08 220.672h1.536L620.544 322.56v2.048c-0.512-3.584-3.072-6.656-7.168-6.656-4.096 0-7.168 3.072-7.168 7.168 0 0.512 0 1.024 0.512 2.048V453.632c-10.752 0.512-22.016 1.024-33.28 1.024-130.048 0-238.08-91.648-263.68-214.016-11.776 17.408-16.384 47.104-16.384 96.256 0 148.992 120.832 283.648 269.824 283.648 15.36 0 30.208 0 44.032-0.512V740.352c0 0.512-0.512 1.024-0.512 2.048 0 4.096 3.072 7.168 7.168 7.168 3.584 0 6.656-2.56 7.168-6.656v1.536l226.816-199.68h-2.56c3.584-0.512 6.656-3.072 6.656-7.168 0-3.584-3.072-6.656-6.656-6.656z m0 0"  horiz-adv-x="1024" />

    
    <glyph glyph-name="mayicaifu" unicode="&#58940;" d="M204.8 896h614.4a204.8 204.8 0 0 0 204.8-204.8v-614.4a204.8 204.8 0 0 0-204.8-204.8H204.8a204.8 204.8 0 0 0-204.8 204.8V691.2a204.8 204.8 0 0 0 204.8 204.8zM204.936533 383.214933c0-170.359467 137.489067-308.497067 307.063467-308.497066s307.063467 138.1376 307.063467 308.497066a308.053333 308.053333 0 0 1-76.6976 203.912534c-2.048 2.2528-4.7104 5.2224-8.123734 8.874666a8.874667 8.874667 0 0 1-12.561066 0.3072l-0.136534-0.136533c-3.618133-3.618133-6.519467-6.621867-8.704-8.772267l-41.847466-42.052266-5.5296-5.5296a8.874667 8.874667 0 0 1-0.136534-12.356267c2.628267-2.7648 4.642133-5.085867 6.2464-6.894933a210.944 210.944 0 0 0 50.619734-137.4208c0-116.565333-94.037333-211.0464-210.090667-211.0464s-210.090667 94.481067-210.090667 211.0464a210.602667 210.602667 0 0 0 55.978667 143.36 8.874667 8.874667 0 0 1-0.2048 12.288l-6.314667 6.382933-41.745066 41.8816-8.055467 8.055467a8.874667 8.874667 0 0 1-12.561067 0l-0.2048-0.2048c-2.9696-3.208533-5.393067-5.7344-7.202133-7.7824a307.541333 307.541333 0 0 1-76.765867-203.912534zM330.205867 710.4512l-21.845334-22.016a17.681067 17.681067 0 0 1 0-24.9856l192.1024-193.399467a17.681067 17.681067 0 0 1 25.053867-0.068266l0.068267 0.068266 192.1024 193.399467a17.681067 17.681067 0 0 1 0 24.9856l-21.845334 22.016a48.298667 48.298667 0 0 1-68.334933 0.2048l-0.2048-0.2048-114.244267-115.029333-114.244266 115.029333a48.298667 48.298667 0 0 1-68.334934 0.2048l-0.273066-0.2048z"  horiz-adv-x="1024" />

    
    <glyph glyph-name="xin" unicode="&#59362;" d="M700.856 740.457c-74.769 0-144.295-72.696-190.046-127.26-45.737 54.576-115.247 127.26-190.056 127.26-134.79 0-244.443-105.78-244.443-235.799 0-77.57 39.278-131.988 70.845-175.713C238.908 201.947 469.62 43.906 479.39 37.243c9.41-6.414 20.424-9.629 31.401-9.629 11.006 0 21.998 3.215 31.398 9.63 9.782 6.662 240.514 164.703 332.238 291.701 31.587 43.724 70.874 98.143 70.874 175.713-0.001 130.02-109.656 235.8-244.445 235.8z m0 0"  horiz-adv-x="1024" />

    
    <glyph glyph-name="wangwang1" unicode="&#58906;" d="M863.206 639.375c50.001-40.913 87.878-87.504 113.642-139.781 25.76-52.272 37.884-108.717 36.362-169.328-1.509-62.881-14.017-120.834-37.5-173.87-23.481-53.036-56.065-99.438-97.731-139.212-41.668-39.774-91.48-71.593-149.438-95.459-57.959-23.864-122.166-38.07-192.626-42.614-70.455-4.545-136.56 2.27-198.303 20.453s-116.294 45.457-163.646 81.823c-47.35 36.363-85.233 80.5-113.643 132.394-28.41 51.894-44.13 109.286-47.16 172.167-2.272 46.217 3.218 89.021 16.478 128.416C42.9 453.76 60.704 489.938 83.052 522.893c22.351 32.955 46.972 62.503 73.868 88.642 26.896 26.138 52.845 48.675 77.846 67.617 43.185 32.578 56.441 75.762 39.772 129.551-3.029 9.849-6.625 18.941-10.792 27.276-4.167 8.332-8.146 15.72-11.933 22.16-3.79 6.439-6.631 12.122-8.523 17.046-1.895 4.924-1.707 8.523 0.569 10.795 2.272 3.032 8.9 2.652 19.887-1.135 10.981-3.79 23.489-9.092 37.5-15.912 14.017-6.817 28.604-14.206 43.753-22.16 15.148-7.955 28.033-15.343 38.638-22.16 13.64-8.334 26.329-15.343 38.071-21.025 11.741-5.682 24.055-10.418 36.934-14.206 12.879-3.787 27.084-7.577 42.615-11.364a9896.403 9896.403 0 0 0 55.118-13.637c26.519-6.82 53.408-13.828 80.687-21.025a821.064 821.064 0 0 0 80.116-25.57c26.136-9.849 51.517-21.022 76.144-33.523 24.616-12.498 47.915-27.464 69.884-44.888z m-264.79-414.794c9.095 0.755 17.618 5.494 25.569 14.205 7.957 8.712 14.395 19.888 19.32 33.527 4.929 13.634 8.146 29.541 9.661 47.727 1.516 18.184 0.76 37.505-2.274 57.958-7.574 47.729-20.453 84.094-38.638 109.098-18.184 25.001-37.123 36.365-56.82 34.093-15.148-2.275-27.084-12.879-35.797-31.82-8.718-18.941-12.689-43.942-11.937-75.005 19.699-4.544 37.506-8.332 53.414-11.364 13.64-3.03 26.324-5.682 38.071-7.955 11.741-2.272 18.373-3.41 19.888-3.41 6.06-1.515 6.819-3.787 2.27-6.816l-15.908-15.909c-9.85-9.854-20.075-20.459-30.681-31.823l-43.188-45.457c8.335-21.968 18.373-39.015 30.113-51.139 11.745-12.126 24.064-17.425 36.937-15.91z m285.243 52.276c15.153 3.79 28.222 17.807 39.209 42.045 10.98 24.249 14.205 59.096 9.66 104.553-2.274 18.94-5.683 36.934-10.232 53.98-4.544 17.046-10.227 31.821-17.046 44.319-6.813 12.502-14.395 22.163-22.729 28.979-8.334 6.82-16.669 9.469-24.997 7.955-15.908-3.03-27.65-15.532-35.229-37.5-7.58-21.971-11.364-46.594-11.364-73.867 17.423-3.033 32.955-6.063 46.594-9.093 12.125-2.271 23.106-4.167 32.955-5.682 9.851-1.515 15.532-2.271 17.048-2.271 4.544-1.516 5.305-3.79 2.273-6.82-1.52-1.515-6.44-6.251-14.776-14.205-8.328-7.955-17.807-16.478-28.409-25.569-12.125-10.608-25.376-22.729-39.775-36.367 6.819-22.729 14.966-40.906 24.433-54.547 9.468-13.64 20.261-18.945 32.385-15.91z"  horiz-adv-x="1024" />

    
    <glyph glyph-name="feizhu1" unicode="&#58892;" d="M438.154 14.176000000000045c-103.9 0-197 37.1-262.2 102.7-64.7 65-97.6 155.4-97 261.2 1 186.9 135.1 379.2 455.1 375.7h411l-9.4-45.4c-10.6-51.6-29.9-95.2-47.1-122.8h55.3l-8.8-36.8c-0.9-5.5-29.5-128-139.3-191-4.8-96.3-40.3-182-101.4-243.2-64.9-65.1-153.5-100.4-256.2-100.4M894.954 719.2760000000001s-272-1.1-360 0c-281.9 3.6-416.3-167.1-417.3-338.5-1.2-213.2 146.6-327.3 321.3-327.3 197 0 321 141 320.6 330.5 111.8 50.6 131.4 173.8 131.4 173.8h-71.5c25.4 28.4 62.4 81.5 75.5 161.5M245.854 474.676c0 16.6 13.5 30.1 30.1 30.1s30.1-13.5 30.1-30.1-13.4-30.1-30.1-30.1-30.1 13.5-30.1 30.1M603.354 444.576c-16.6 0-30.1 13.4-30.1 30s13.5 30.1 30.1 30.1 30.1-13.5 30.1-30.1c-0.1-16.5-13.5-30-30.1-30M472.654 198.17600000000004h-66.1c-71.8 0-130.3 58.5-130.3 130.3s58.4 130.3 130.3 130.3h66.1c71.9 0 130.3-58.5 130.3-130.3 0-71.9-58.5-130.3-130.3-130.3z m-66.1 225.6c-52.5 0-95.3-42.8-95.3-95.3s42.7-95.3 95.3-95.3h66.1c52.6 0 95.3 42.8 95.3 95.3s-42.8 95.3-95.3 95.3h-66.1zM374.154 328.476c0 14 11.3 25.3 25.3 25.3s25.3-11.3 25.3-25.3-11.3-25.3-25.3-25.3-25.3 11.3-25.3 25.3M456.054 328.476c0 14 11.3 25.3 25.3 25.3s25.3-11.3 25.3-25.3-11.3-25.3-25.3-25.3-25.3 11.3-25.3 25.3"  horiz-adv-x="1024" />

    
    <glyph glyph-name="zhaoxiangji" unicode="&#58916;" d="M512 608c-124.8 0-224-99.2-224-224s99.2-224 224-224 224 99.2 224 224-99.2 224-224 224z m0-400c-96 0-176 80-176 176s80 176 176 176 176-80 176-176-80-176-176-176zM768 524.8a1.6 1.6 0 1 1 102.4 0 1.6 1.6 0 1 1-102.4 0zM864 672h-96l-22.4 67.2c-6.4 16-25.6 28.8-41.6 28.8H320c-19.2 0-35.2-12.8-41.6-28.8L256 672h-96c-54.4 0-96-41.6-96-96v-448c0-54.4 44.8-96 96-96h704c54.4 0 96 41.6 96 96V576c0 54.4-41.6 96-96 96z m48-544c0-25.6-22.4-48-48-48H160c-25.6 0-48 22.4-48 48V576c0 25.6 22.4 48 48 48h131.2l9.6 32 22.4 64h377.6l22.4-64 9.6-32H864c25.6 0 48-22.4 48-48v-448z"  horiz-adv-x="1024" />

    
    <glyph glyph-name="xianyu" unicode="&#58893;" d="M81 848m139 0l650 0q139 0 139-139l0-650q0-139-139-139l-650 0q-139 0-139 139l0 650q0 139 139 139ZM869 427h-94v-33h94v33z m47.995 23.5c0.003-0.166 0.005-0.333 0.005-0.5v-161c0-13.255-10.745-24-24-24-2.39 0-4.699 0.35-6.878 1H607c-13.255 0-24 10.745-24 24V451c0 13.255 10.745 24 24 24h130.729c3.801 2.527 8.364 4 13.271 4s9.47-1.473 13.271-4H893c13.255 0 24-10.745 24-24 0-0.167-0.002-0.334-0.005-0.5zM869 314v32h-94v-32h94zM727 427h-96v-33h96v33z m0-113v32h-96v-32h96z m141 205H630v-3c0-13.255-10.745-24-24-24s-24 10.745-24 24v27c0 13.255 10.745 24 24 24h286c13.255 0 24-10.745 24-24v-27c0-13.255-10.745-24-24-24s-24 10.745-24 24v3z m-384 30c13.255 0 24-10.745 24-24v-300c0-13.255-10.745-24-24-24s-24 10.745-24 24V388h-95v-163c0-13.255-10.745-24-24-24s-24 10.745-24 24V388h-96v-163c0-13.255-10.745-24-24-24s-24 10.745-24 24V525c0 13.255 10.745 24 24 24s24-10.745 24-24v-89h96v8c0 13.255 10.745 24 24 24s24-10.745 24-24v-8h95v65H333c-13.255 0-24 10.745-24 24s10.745 24 24 24h151zM269 331c13.255 0 24-10.745 24-24v-82c0-13.255-10.745-24-24-24s-24 10.745-24 24v82c0 13.255 10.745 24 24 24z m-4 236c13.255 0 24-10.745 24-24v-27c0-13.255-10.745-24-24-24s-24 10.745-24 24v27c0 13.255 10.745 24 24 24z m341-318c13.255 0 24-10.745 24-24s-10.745-24-24-24-24 10.745-24 24 10.745 24 24 24z m97 0c13.255 0 24-10.745 24-24s-10.745-24-24-24-24 10.745-24 24 10.745 24 24 24z m95 0c13.255 0 24-10.745 24-24s-10.745-24-24-24-24 10.745-24 24 10.745 24 24 24z m95 0c13.255 0 24-10.745 24-24s-10.745-24-24-24-24 10.745-24 24 10.745 24 24 24z m-481 82c13.255 0 24-10.745 24-24v-82c0-13.255-10.745-24-24-24s-24 10.745-24 24v82c0 13.255 10.745 24 24 24z"  horiz-adv-x="1024" />

    
    <glyph glyph-name="xiala" unicode="&#58963;" d="M543.744 248.32c-7.168-7.168-16.896-13.824-26.112-11.776-9.216-1.536-17.92 5.632-25.088 11.776L270.848 471.04c-11.264 11.264-11.264 29.696 0 40.96s29.696 11.264 40.96 0l206.336-211.968L724.992 512c11.264 11.264 29.696 11.264 40.96 0s11.264-29.696 0-40.96L543.744 248.32z"  horiz-adv-x="1024" />

    
    <glyph glyph-name="icon" unicode="&#58894;" d="M1217.570781 896H565.136627S0 896 0 346.94449699999996c0-288.334545 195.45457-404.440257 347.053619-451.121461 142.226051-43.832548 296.903486-27.154126 424.243011 49.874456 104.159734 63.015031 205.723516 174.595055 225.733029 371.382061 0 0 170.000449 59.729887 220.541122 335.406291h-81.554269S1208.381568 758.161798 1217.570781 896zM1005.529681 603.668147h59.592049c-5.214879-20.859515-8.821645-40.340647-14.932472-58.99475-26.373043-80.405618-71.974514-146.567954-144.890923-191.847804-6.754072-4.181092-7.213533-9.46489-7.87975-16.081123-15.323013-159.019339-88.629964-277.973707-239.516849-341.402253-59.729887-25.270337-122.928703-32.644681-187.666711-29.38251-64.324494 3.239198-125.501683 18.240589-182.405887 48.725805C181.486965 71.54377 119.161125 160.86292500000002 97.31377 278.46188400000005c-17.413559 93.844842-9.533809 185.438327 32.897384 272.000718 51.965002 105.974604 138.274689 172.182887 248.545251 209.284336C445.676852 782.283484 515.009467 791.403778 585.352896 791.633508c154.654462 0.505407 477.839099-1.355409 477.839099-1.355409s-26.418989-130.234128-56.973123-182.061291a16.081124 16.081124 0 0 1-0.689191-4.548661zM1005.529681 603.668147h59.592049c-5.214879-20.859515-8.821645-40.340647-14.932472-58.99475-26.373043-80.405618-71.974514-146.567954-144.890923-191.847804-6.754072-4.181092-7.213533-9.46489-7.87975-16.081123-15.323013-159.019339-88.629964-277.973707-239.516849-341.402253-59.729887-25.270337-122.928703-32.644681-187.666711-29.38251-64.324494 3.239198-125.501683 18.240589-182.405887 48.725805C181.486965 71.54377 119.161125 160.86292500000002 97.31377 278.46188400000005c-17.413559 93.844842-9.533809 185.438327 32.897384 272.000718 51.965002 105.974604 138.274689 172.182887 248.545251 209.284336C445.676852 782.283484 515.009467 791.403778 585.352896 791.633508c154.654462 0.505407 477.839099-1.355409 477.839099-1.355409s-26.418989-130.234128-56.973123-182.061291a16.081124 16.081124 0 0 1-0.689191-4.548661zM978.651232 732.179297h-15.07031q-189.481581 0-379.055055 0.160812c-60.05151 0-119.04626-7.167586-176.29506-25.706825-89.755642-29.060888-163.108539-80.061022-211.719478-162.51124C150.817966 466.404272 141.031453 382.277022 157.434199 294.772737c19.067618-101.678647 72.709651-179.189662 165.84233-226.422219 75.971822-38.571723 157.112577-46.910935 240.229012-32.506842 95.866469 16.632476 171.218019 65.312335 221.80464 149.669314 33.517656 55.847445 47.347422 117.162471 49.621752 181.624803 0.22973 6.1338 0 11.325706 7.328398 14.863553 46.819042 22.582492 80.750213 58.604209 105.055683 103.952977a247.810114 247.810114 0 0 1 27.177099 76.293445h-74.89209c42.821735 50.127159 68.68937 105.630009 79.050209 169.931529zM334.257639 435.390676m125.203033 0l75.811011 0q125.203033 0 125.203033-125.203033l0 0q0-125.203033-125.203033-125.203033l-75.811011 0q-125.203033 0-125.203033 125.203033l0 0q0 125.203033 125.203033 125.203033ZM312.433257 475.593485m-33.310899 0a33.310899 33.310899 0 1 1 66.621798 0 33.310899 33.310899 0 1 1-66.621798 0ZM451.42011 311.33629499999995m-27.56764 0a27.56764 27.56764 0 1 1 55.135281 0 27.56764 27.56764 0 1 1-55.135281 0ZM543.312245 311.33629499999995m-27.567641 0a27.56764 27.56764 0 1 1 55.135281 0 27.56764 27.56764 0 1 1-55.135281 0ZM680.001795 475.593485m-33.310899 0a33.310899 33.310899 0 1 1 66.621797 0 33.310899 33.310899 0 1 1-66.621797 0Z"  horiz-adv-x="1217" />

    
    <glyph glyph-name="huaban" unicode="&#58895;" d="M1024 642.021053v-516.042106a78.282105 78.282105 0 0 0-0.875789-8.825263 568.387368 568.387368 0 0 0-6.736843-62.517895c-15.157895-77.541053-59.284211-132.311579-132.311579-163.166315A256 256 0 0 0 801.684211-125.978947c-10.576842-0.741053-21.221053-1.347368-31.797895-2.021053H253.978947c-4.581053 0.336842-9.229474 0.808421-13.877894 0.943158a342.972632 342.972632 0 0 0-67.368421 8.151579c-73.431579 17.852632-125.103158 61.844211-153.936843 131.84A261.254737 261.254737 0 0 0 2.021053 94.315789c-0.808421 10.913684-1.347368 21.894737-2.021053 32.808422V641.010526a87.983158 87.983158 0 0 0 0.875789 9.364211c2.021053 21.018947 2.425263 42.374737 6.736843 62.989474C22.433684 790.905263 66.627368 845.675789 139.587368 876.530526A256 256 0 0 0 222.315789 893.978947c10.576842 0.741053 21.221053 1.347368 31.797895 2.021053h516.042105c4.446316-0.336842 8.892632-0.808421 13.473685-0.943158a341.962105 341.962105 0 0 0 67.772631-8.151579C924.833684 869.052632 976.842105 825.061053 1005.338947 754.997895a259.637895 259.637895 0 0 0 16.909474-80.842106c0.471579-10.981053 1.077895-21.557895 1.751579-32.134736zM1005.338947 754.997895C976.842105 825.061053 924.833684 869.052632 851.402105 886.905263a343.578947 343.578947 0 0 1-42.981052 6.736842v-1019.216842a256 256 0 0 1 75.654736 17.044211c73.027368 30.854737 117.153684 85.625263 132.311579 163.166315a568.387368 568.387368 0 0 1 6.736843 62.517895 78.282105 78.282105 0 0 1 0.875789 8.825263V642.021053c-0.673684 10.576842-1.28 21.153684-1.751579 32.134736a259.637895 259.637895 0 0 1-16.909474 80.842106zM0 127.124211c0.673684-10.913684 1.212632-21.894737 2.021053-32.808422a261.254737 261.254737 0 0 1 16.774736-81.381052c28.833684-69.995789 80.842105-113.785263 153.936843-131.84a342.972632 342.972632 0 0 1 67.368421-8.151579c4.648421 0 9.296842-0.606316 13.877894-0.943158H262.736842v262.736842H0zM808.421053 893.574737c-8.218947 0.741053-16.505263 1.347368-24.791579 1.482105-4.581053 0-9.027368 0.606316-13.473685 0.943158H707.368421v-1024h62.517895c10.576842 0.673684 21.221053 1.28 31.797895 2.021053l6.736842 0.40421zM808.421053 893.574737c-8.218947 0.741053-16.505263 1.347368-24.791579 1.482105-4.581053 0-9.027368 0.606316-13.473685 0.943158h-516.042105c-10.576842-0.673684-21.221053-1.28-31.797895-2.021053a256 256 0 0 1-82.728421-17.448421C66.627368 845.675789 22.433684 790.905263 7.275789 713.364211c-3.974737-20.614737-4.378947-41.970526-6.4-62.989474A87.983158 87.983158 0 0 1 0 641.010526V545.684211h808.421053zM350.315789 896H254.113684L229.052632 894.383158v-1020.901053c3.705263 0 7.343158-0.471579 11.048421-0.538947s9.162105-0.943158 13.877894-0.943158H350.315789zM0 633.263158h1024v-87.578947H0zM0 195.368421v-68.24421c0.673684-10.913684 1.212632-21.894737 2.021053-32.808422a258.762105 258.762105 0 0 1 6.736842-47.157894h1005.945263c0.606316 2.492632 1.212632 4.917895 1.68421 7.477894a568.387368 568.387368 0 0 1 6.736843 62.517895 78.282105 78.282105 0 0 1 0.875789 8.825263V195.368421zM651.991579 46.888421l-214.501053 131.368421-104.757894-86.433684 41.566315 131.368421 419.098948 432.370526-475.621053-410.745263L141.473684 359.545263l660.210527 307.671579-149.692632-620.328421z"  horiz-adv-x="1024" />

    
    <glyph glyph-name="chexian" unicode="&#58978;" d="M512 384m-426.666667 0a426.666667 426.666667 0 1 1 853.333334 0 426.666667 426.666667 0 1 1-853.333334 0ZM721.066667 426.666667H704l-17.066667 78.933333c-17.066667 42.666667-38.4 119.466667-85.333333 119.466667H426.666667c-46.933333 0-68.266667-78.933333-85.333334-119.466667l-19.2-78.933333h-17.066666c-38.4 0-68.266667-32-68.266667-68.266667v-132.266667c0-38.4 32-46.933333 68.266667-46.933333v-12.8c0-25.6 21.333333-23.466667 46.933333-23.466667s46.933333-2.133333 46.933333 23.466667v12.8h253.866667v-12.8c0-25.6 21.333333-23.466667 46.933333-23.466667 25.6 0 46.933333-2.133333 46.933334 23.466667v17.066667c27.733333 10.666667 46.933333 12.8 46.933333 42.666666v132.266667c-4.266667 36.266667-36.266667 68.266667-72.533333 68.266667z m-360.533334-181.333334c-25.6 0-46.933333 21.333333-46.933333 46.933334 0 25.6 21.333333 46.933333 46.933333 46.933333s46.933333-21.333333 46.933334-46.933333c-2.133333-25.6-21.333333-46.933333-46.933334-46.933334z m36.266667 219.733334l17.066667 68.266666c0 25.6 17.066667 46.933333 38.4 46.933334h110.933333c21.333333 0 38.4-21.333333 38.4-46.933334l23.466667-68.266666H396.8z m256-230.4c-25.6 0-46.933333 21.333333-46.933333 46.933333 0 25.6 21.333333 46.933333 46.933333 46.933333 25.6 0 46.933333-21.333333 46.933333-46.933333 0-25.6-21.333333-46.933333-46.933333-46.933333z"  horiz-adv-x="1024" />

    
    <glyph glyph-name="juhuasuan" unicode="&#58896;" d="M278.300444 656.611556h131.527112v-28.216889h-131.527112zM278.072889 483.896889c45.511111 3.185778 91.022222 5.233778 131.754667 6.599111v21.162667h-131.754667zM278.072889 585.614222H409.6v-31.175111h-131.527111zM864.711111 896H159.288889a159.288889 159.288889 0 0 1-159.288889-159.288889v-705.422222a159.288889 159.288889 0 0 1 159.288889-159.288889h705.422222a159.288889 159.288889 0 0 1 159.288889 159.288889V736.711111a159.288889 159.288889 0 0 1-159.288889 159.288889zM146.318222 54.044444a295.822222 295.822222 0 0 1-27.761778 49.152c190.236444 32.312889 273.066667 127.431111 273.066667 127.658667l56.433778-61.667555C381.838222 107.064889 197.518222 54.044444 146.318222 54.044444z m586.183111 391.168a487.651556 487.651556 0 0 1 51.2-89.201777c-49.152-9.784889-121.742222-18.432-199.566222-25.713778a469.674667 469.674667 0 0 1 83.740445-82.147556 298.780444 298.780444 0 0 1 133.347555 106.040889l101.717333-60.757333a437.816889 437.816889 0 0 0-165.205333-91.022222 588.458667 588.458667 0 0 1 168.163556-62.350223s-70.542222-68.266667-89.201778-89.201777A642.616889 642.616889 0 0 0 577.536 213.333333v-167.708444h-126.065778v273.066667l-33.678222-2.503112 30.72-33.450666C381.838222 221.297778 197.518222 167.822222 146.318222 167.822222a295.822222 295.822222 0 0 1-27.761778 49.152 546.133333 546.133333 0 0 1 236.430223 95.573334c-92.387556-5.916444-160.881778-9.102222-160.881778-9.102223l-14.336 61.667556c55.751111 0 140.856889 6.826667 229.831111 16.839111v45.511111a1313.678222 1313.678222 0 0 1-270.336-48.924444l-35.726222 88.746666c25.258667 3.640889 52.792889 6.826667 81.009778 9.329778v179.768889H132.437333V722.147556H568.888889v-32.312889a834.673778 834.673778 0 0 0 197.518222 26.851555c63.715556 0 107.633778-17.976889 128.796445-54.840889a68.266667 68.266667 0 0 0-4.323556-79.872 244.622222 244.622222 0 0 0-55.296-55.751111 685.169778 685.169778 0 0 0 83.285333-63.943111 2083.657956 2083.657956 0 0 0-92.387555-74.183111 494.933333 494.933333 0 0 1-70.769778 83.968q-35.271111-21.390222-76.458667-44.145778a459.662222 459.662222 0 0 1 53.248 17.294222zM635.562667 628.622222a1107.285333 1107.285333 0 0 0 125.838222-58.481778 154.055111 154.055111 0 0 1 42.097778 34.133334 31.630222 31.630222 0 0 1 6.826666 33.678222c-7.736889 15.018667-26.851556 20.707556-55.978666 22.755556H750.933333a318.577778 318.577778 0 0 1-175.217777-48.696889l-22.755556 45.511111h-48.241778v-163.157334h57.799111v-58.026666c-19.797333 0-39.139556-1.137778-57.799111-2.275556v-40.049778c41.870222 6.144 82.375111 12.970667 119.011556 20.707556l-47.786667 73.045333c35.498667 14.108444 71.907556 28.216889 105.358222 42.780445a485.603556 485.603556 0 0 1-91.022222 48.924444z"  horiz-adv-x="1024" />

    


  </font>
</defs>
</svg>
